<svg xmlns="http://www.w3.org/2000/svg" width="20.997" height="20.43" viewBox="0 0 20.997 20.43"> <g id="noun-filter-4651669" transform="translate(-101.109 -37.837)"> <path id="Path_41" data-name="Path 41" d="M101.96,41.809h1.54a3.118,3.118,0,0,0,6,0h11.754a.851.851,0,1,0,0-1.7H109.5a3.118,3.118,0,0,0-6,0h-1.54a.851.851,0,1,0,0,1.7Zm4.54-2.27a1.42,1.42,0,1,1-1,.416,1.419,1.419,0,0,1,1-.416Z" fill="#6e7574"/> <path id="Path_42" data-name="Path 42" d="M121.259,208.277h-2.107a3.118,3.118,0,0,0-6,0H101.964a.851.851,0,1,0,0,1.7h11.187a3.118,3.118,0,0,0,6,0h2.107a.851.851,0,1,0,0-1.7Zm-5.107,2.27h0a1.42,1.42,0,1,1,1-.416,1.419,1.419,0,0,1-1,.416Z" transform="translate(-0.004 -161.076)" fill="#6e7574"/> <path id="Path_43" data-name="Path 43" d="M121.265,376.447H109.511a3.118,3.118,0,0,0-6,0h-1.54a.851.851,0,1,0,0,1.7h1.54a3.118,3.118,0,0,0,6,0h11.754a.851.851,0,1,0,0-1.7Zm-14.755,2.27a1.42,1.42,0,1,1,1-.416,1.419,1.419,0,0,1-1,.416Z" transform="translate(-0.011 -322.153)" fill="#6e7574"/> </g> </svg>