<svg xmlns="http://www.w3.org/2000/svg" width="27.998" height="27.998" viewBox="0 0 27.998 27.998"> <g id="noun-full-2374017" transform="translate(-140 -70)"> <path id="Path_65" data-name="Path 65" d="M148.679,352.146h-7.513A1.166,1.166,0,0,1,140,350.98v-7.513a1.167,1.167,0,1,1,2.333,0v6.346h6.346a1.167,1.167,0,1,1,0,2.333Z" transform="translate(0 -254.148)" fill="#fff"/> <path id="Path_66" data-name="Path 66" d="M420.98,352.147h-7.513a1.167,1.167,0,1,1,0-2.333h6.346v-6.346a1.167,1.167,0,1,1,2.333,0v7.513a1.166,1.166,0,0,1-1.167,1.167Z" transform="translate(-254.148 -254.149)" fill="#fff"/> <path id="Path_67" data-name="Path 67" d="M141.167,79.846A1.166,1.166,0,0,1,140,78.679V71.167A1.166,1.166,0,0,1,141.167,70h7.513a1.167,1.167,0,1,1,0,2.333h-6.346v6.346a1.166,1.166,0,0,1-1.167,1.167Z" fill="#fff"/> <path id="Path_68" data-name="Path 68" d="M420.981,79.847a1.166,1.166,0,0,1-1.167-1.167V72.334h-6.346a1.167,1.167,0,1,1,0-2.333h7.513a1.166,1.166,0,0,1,1.167,1.167V78.68a1.166,1.166,0,0,1-1.167,1.167Z" transform="translate(-254.149 -0.001)" fill="#fff"/> <path id="Path_69" data-name="Path 69" d="M143,375.466a1.167,1.167,0,0,1-.828-1.995l5.7-5.7a1.171,1.171,0,0,1,1.657,1.657l-5.7,5.7A1.166,1.166,0,0,1,143,375.466Z" transform="translate(-1.706 -277.597)" fill="#fff"/> <path id="Path_70" data-name="Path 70" d="M438.572,92.634a1.167,1.167,0,0,1-.828-1.995l4.795-4.795a1.171,1.171,0,0,1,1.657,1.657L439.4,92.3a1.167,1.167,0,0,1-.828.338Z" transform="translate(-277.573 -14.468)" fill="#fff"/> <path id="Path_71" data-name="Path 71" d="M155.1,86.265a1.167,1.167,0,0,1-.828-.338l-5.25-5.25a1.171,1.171,0,0,1,1.657-1.657l5.25,5.25a1.167,1.167,0,0,1-.828,1.995Z" transform="translate(-8.099 -8.099)" fill="#fff"/> <path id="Path_72" data-name="Path 72" d="M443.849,375.015a1.167,1.167,0,0,1-.828-.338l-5.25-5.25a1.171,1.171,0,0,1,1.657-1.657l5.25,5.25a1.167,1.167,0,0,1-.828,1.995Z" transform="translate(-277.601 -277.601)" fill="#fff"/> </g> </svg>