<svg id="Group_616" data-name="Group 616" xmlns="http://www.w3.org/2000/svg" width="4.52" height="13.133" viewBox="0 0 4.52 13.133"> <g id="Group_615" data-name="Group 615"> <path id="Path_31" data-name="Path 31" d="M27.32,154.823a.627.627,0,0,0,.541-.343,12.123,12.123,0,0,0,0-12.447.6.6,0,0,0-1.081,0,12.123,12.123,0,0,0,0,12.447A.627.627,0,0,0,27.32,154.823Zm-.1-12.479a.11.11,0,0,1,.205,0,11.478,11.478,0,0,1,0,11.825.118.118,0,0,1-.1.071.117.117,0,0,1-.1-.07,11.478,11.478,0,0,1,0-11.825h0Z" transform="translate(-25.06 -141.69)" fill="#fff"/> <path id="Path_32" data-name="Path 32" d="M56.435,279.3c0-1.1-.631-2-1.407-2s-1.407.9-1.407,2,.631,2,1.407,2S56.435,280.408,56.435,279.3Zm-2.3,0c0-.783.4-1.419.889-1.419s.889.637.889,1.419-.4,1.419-.889,1.419S54.138,280.086,54.138,279.3Z" transform="translate(-52.768 -272.737)" fill="#fff"/> <path id="Path_33" data-name="Path 33" d="M92.369,188.493a.277.277,0,0,0,.259-.292v-2.219a.261.261,0,1,0-.518,0V188.2a.277.277,0,0,0,.259.292Z" transform="translate(-90.109 -184.209)" fill="#fff"/> <path id="Path_34" data-name="Path 34" d="M92.628,407.191v-2.219a.261.261,0,1,0-.518,0v2.219a.261.261,0,1,0,.518,0Z" transform="translate(-90.109 -395.83)" fill="#fff"/> </g> </svg>