<svg xmlns="http://www.w3.org/2000/svg" xmlns:xlink="http://www.w3.org/1999/xlink" width="69.997" height="69.995" viewBox="0 0 69.997 69.995">
  <defs>
    <filter id="Path_75" x="0" y="0" width="69.997" height="69.995" filterUnits="userSpaceOnUse">
      <feOffset dy="1" input="SourceAlpha"/>
      <feGaussianBlur stdDeviation="5" result="blur"/>
      <feFlood flood-opacity="0.161"/>
      <feComposite operator="in" in2="blur"/>
      <feComposite in="SourceGraphic"/>
    </filter>
  </defs>
  <g id="Group_581" data-name="Group 581" transform="translate(15 14)">
    <g id="Group_582" data-name="Group 582" transform="translate(0 0)">
      <g transform="matrix(1, 0, 0, 1, -15, -14)" filter="url(#Path_75)">
        <path id="Path_75-2" data-name="Path 75" d="M117.99,28a20,20,0,1,0,0,40h.133a20.028,20.028,0,0,0,19.864-20.131A20.058,20.058,0,0,0,117.99,28ZM130.3,60.174a17.3,17.3,0,0,1-12.221,5.155h-.089a17.372,17.372,0,1,1,12.31-5.155Z" transform="translate(-82.99 -14)" fill="#fff"/>
      </g>
      <path id="Path_76" data-name="Path 76" d="M202.842,154.667a15.539,15.539,0,0,0,4.044.578,10.736,10.736,0,0,0,6.533-2.178,9.507,9.507,0,0,1,8.8-1.422,1.279,1.279,0,0,0,.755-2.444,12.092,12.092,0,0,0-11.11,1.822c-3.022,2.222-6.088,1.777-8.4,1.155a1.284,1.284,0,1,0-.622,2.489Z" transform="translate(-193.598 -139.024)" fill="#fff"/>
      <path id="Path_77" data-name="Path 77" d="M199.074,237.853a15.007,15.007,0,0,0-4.666-1.866,12.464,12.464,0,0,0-10.221,2.089,10.463,10.463,0,0,1-11.021.533,1.292,1.292,0,0,0-1.155,2.311,14.821,14.821,0,0,0,6.488,1.644,12.134,12.134,0,0,0,7.2-2.355,9.843,9.843,0,0,1,8.088-1.689,12.979,12.979,0,0,1,3.866,1.511,1.289,1.289,0,0,0,1.777-.356,1.334,1.334,0,0,0-.356-1.822Z" transform="translate(-165.477 -219.188)" fill="#fff"/>
      <path id="Path_78" data-name="Path 78" d="M234.539,325.043a12.092,12.092,0,0,0-11.11,1.822,9.389,9.389,0,0,1-8.4,1.511,1.294,1.294,0,1,0-.711,2.488,13.3,13.3,0,0,0,3.466.489,11.79,11.79,0,0,0,7.155-2.4,9.507,9.507,0,0,1,8.8-1.422,1.265,1.265,0,0,0,1.6-.844,1.225,1.225,0,0,0-.8-1.644Z" transform="translate(-204.231 -300.913)" fill="#fff"/>
    </g>
  </g>
</svg>
