<svg xmlns="http://www.w3.org/2000/svg" width="21.258" height="17.265" viewBox="0 0 21.258 17.265"> <path id="Icon_awesome-twitter" data-name="Icon awesome-twitter" d="M19.073,7.684c.013.189.013.378.013.567a12.311,12.311,0,0,1-12.4,12.4A12.312,12.312,0,0,1,0,18.69a9.012,9.012,0,0,0,1.052.054,8.725,8.725,0,0,0,5.409-1.861,4.365,4.365,0,0,1-4.074-3.021,5.494,5.494,0,0,0,.823.067,4.608,4.608,0,0,0,1.147-.148A4.357,4.357,0,0,1,.863,9.5V9.451A4.388,4.388,0,0,0,2.833,10,4.363,4.363,0,0,1,1.484,4.177a12.384,12.384,0,0,0,8.983,4.559,4.918,4.918,0,0,1-.108-1A4.361,4.361,0,0,1,17.9,4.757,8.578,8.578,0,0,0,20.665,3.7a4.345,4.345,0,0,1-1.915,2.4,8.734,8.734,0,0,0,2.509-.674,9.365,9.365,0,0,1-2.185,2.253Z" transform="translate(0 -3.381)" fill="#fff"/> </svg>