<svg xmlns="http://www.w3.org/2000/svg" width="18.791" height="18.791" viewBox="0 0 18.791 18.791"> <path id="Icon_simple-instagram" data-name="Icon simple-instagram" d="M9.4,0C6.843,0,6.524.012,5.522.056A6.928,6.928,0,0,0,3.241.493,4.6,4.6,0,0,0,1.577,1.577,4.584,4.584,0,0,0,.493,3.241,6.908,6.908,0,0,0,.056,5.522C.009,6.524,0,6.843,0,9.4s.012,2.871.056,3.873A6.932,6.932,0,0,0,.493,15.55a4.608,4.608,0,0,0,1.084,1.665A4.594,4.594,0,0,0,3.241,18.3a6.937,6.937,0,0,0,2.281.437c1,.047,1.321.056,3.873.056s2.871-.012,3.873-.056A6.953,6.953,0,0,0,15.55,18.3,4.8,4.8,0,0,0,18.3,15.55a6.932,6.932,0,0,0,.437-2.281c.047-1,.056-1.321.056-3.873s-.012-2.871-.056-3.873A6.948,6.948,0,0,0,18.3,3.241a4.611,4.611,0,0,0-1.084-1.665A4.578,4.578,0,0,0,15.55.493,6.912,6.912,0,0,0,13.269.056C12.267.009,11.948,0,9.4,0Zm0,1.691c2.508,0,2.807.013,3.8.056a5.177,5.177,0,0,1,1.744.325A3.092,3.092,0,0,1,16.72,3.855,5.187,5.187,0,0,1,17.043,5.6c.045.991.055,1.289.055,3.8s-.012,2.807-.058,3.8a5.287,5.287,0,0,1-.33,1.744,2.983,2.983,0,0,1-.7,1.082,2.931,2.931,0,0,1-1.08.7,5.226,5.226,0,0,1-1.75.323c-1,.045-1.291.055-3.8.055s-2.808-.012-3.8-.058a5.328,5.328,0,0,1-1.751-.33,2.91,2.91,0,0,1-1.08-.7,2.853,2.853,0,0,1-.7-1.08,5.332,5.332,0,0,1-.329-1.75c-.035-.987-.048-1.291-.048-3.793s.013-2.808.048-3.806a5.326,5.326,0,0,1,.329-1.749,2.785,2.785,0,0,1,.7-1.081,2.779,2.779,0,0,1,1.08-.7,5.2,5.2,0,0,1,1.739-.33c1-.035,1.292-.047,3.8-.047l.035.023Zm0,2.88A4.825,4.825,0,1,0,14.22,9.4,4.824,4.824,0,0,0,9.4,4.571Zm0,7.956A3.132,3.132,0,1,1,12.527,9.4,3.131,3.131,0,0,1,9.4,12.527Zm6.143-8.147a1.127,1.127,0,1,1-1.127-1.127A1.128,1.128,0,0,1,15.539,4.381Z" fill="#fff"/> </svg>