<svg xmlns="http://www.w3.org/2000/svg" width="23.706" height="18.459" viewBox="0 0 23.706 18.459"> <path id="noun-map-4724932" d="M111.2,78.45a.791.791,0,0,0-.576-.761l-7.375-2.077a.805.805,0,0,0-.429,0L95.661,77.63,88.5,75.613a.791.791,0,0,0-1,.761v14.8a.791.791,0,0,0,.576.761l7.375,2.076a.805.805,0,0,0,.429,0L103.038,92l7.161,2.017a.829.829,0,0,0,.214.029.789.789,0,0,0,.789-.789Zm-14.75.6,5.795-1.632v13.16L96.452,92.21Zm-7.375-1.632,5.795,1.632V92.21l-5.795-1.631ZM109.622,92.21l-5.795-1.632V77.418l5.795,1.631Z" transform="translate(-87.496 -75.584)" fill="#6e7574"/> </svg>