<svg xmlns="http://www.w3.org/2000/svg" width="17.378" height="17.378" viewBox="0 0 17.378 17.378"> <path id="Icon_awesome-pinterest" data-name="Icon awesome-pinterest" d="M17.378,9.252a8.69,8.69,0,0,1-11.261,8.3A9.767,9.767,0,0,0,7.2,15.274c.105-.406.54-2.067.54-2.067a2.327,2.327,0,0,0,1.99,1c2.621,0,4.509-2.411,4.509-5.406A5.1,5.1,0,0,0,8.878,3.782c-3.749,0-5.743,2.516-5.743,5.259A3.9,3.9,0,0,0,4.9,12.408c.165.077.252.042.291-.116.028-.119.175-.711.242-.985a.26.26,0,0,0-.06-.249A3.422,3.422,0,0,1,4.73,9.076a3.76,3.76,0,0,1,3.924-3.77,3.43,3.43,0,0,1,3.63,3.535c0,2.351-1.188,3.98-2.733,3.98a1.26,1.26,0,0,1-1.286-1.57,17.46,17.46,0,0,0,.718-2.894,1.091,1.091,0,0,0-1.1-1.223c-.872,0-1.573.9-1.573,2.109a3.131,3.131,0,0,0,.259,1.289s-.858,3.637-1.016,4.317a8.411,8.411,0,0,0-.032,2.495A8.69,8.69,0,1,1,17.378,9.252Z" transform="translate(0 -0.563)" fill="#fff"/> </svg>