<svg xmlns="http://www.w3.org/2000/svg" width="7.342" height="5.99" viewBox="0 0 7.342 5.99"> <g id="Group_661" data-name="Group 661" transform="translate(0 0.25)"> <path id="Path_17" data-name="Path 17" d="M42,190.478c.734,0,.734,1.03,1.468,1.03s.734-1.03,1.468-1.03.734,1.03,1.468,1.03.734-1.03,1.469-1.03.734,1.03,1.469,1.03" transform="translate(-42 -190.478)" fill="none" stroke="#aab5b3" stroke-miterlimit="10" stroke-width="0.5"/> <path id="Path_18" data-name="Path 18" d="M42,263.2c.734,0,.734,1.03,1.468,1.03s.734-1.03,1.468-1.03.734,1.03,1.468,1.03.734-1.03,1.469-1.03.734,1.03,1.469,1.03" transform="translate(-42 -260.97)" fill="none" stroke="#aab5b3" stroke-miterlimit="10" stroke-width="0.5"/> <path id="Path_19" data-name="Path 19" d="M42,335.922c.734,0,.734,1.03,1.468,1.03s.734-1.03,1.468-1.03.734,1.03,1.468,1.03.734-1.03,1.469-1.03.734,1.03,1.469,1.03" transform="translate(-42 -331.462)" fill="none" stroke="#aab5b3" stroke-miterlimit="10" stroke-width="0.5"/> </g> </svg>